<svg id="Layer_1" data-name="Layer 1" xmlns="http://www.w3.org/2000/svg" viewBox="0 0 122.88 112.13"><defs><style>.cls-1{fill-rule:evenodd;}</style></defs><title>grid-view</title><path fill="white" class="cls-1" d="M6.65,81.89H23.59a6.67,6.67,0,0,1,6.65,6.65v16.95a6.66,6.66,0,0,1-6.65,6.64H6.65A6.66,6.66,0,0,1,0,105.49V88.54a6.67,6.67,0,0,1,6.65-6.65ZM99.29,0h16.94a6.67,6.67,0,0,1,6.65,6.65V23.59a6.67,6.67,0,0,1-6.65,6.65H99.29a6.67,6.67,0,0,1-6.65-6.65V6.65A6.67,6.67,0,0,1,99.29,0ZM53,0H69.91a6.67,6.67,0,0,1,6.65,6.65V23.59a6.67,6.67,0,0,1-6.65,6.65H53a6.67,6.67,0,0,1-6.65-6.65V6.65A6.67,6.67,0,0,1,53,0ZM6.65,0H23.59a6.67,6.67,0,0,1,6.65,6.65V23.59a6.67,6.67,0,0,1-6.65,6.65H6.65A6.67,6.67,0,0,1,0,23.59V6.65A6.67,6.67,0,0,1,6.65,0ZM99.29,41h16.94a6.66,6.66,0,0,1,6.65,6.64v17a6.66,6.66,0,0,1-6.65,6.64H99.29a6.66,6.66,0,0,1-6.65-6.64v-17A6.66,6.66,0,0,1,99.29,41ZM53,41H69.91a6.66,6.66,0,0,1,6.65,6.64v17a6.66,6.66,0,0,1-6.65,6.64H53a6.66,6.66,0,0,1-6.65-6.64v-17A6.66,6.66,0,0,1,53,41ZM6.65,41H23.59a6.66,6.66,0,0,1,6.65,6.64v17a6.66,6.66,0,0,1-6.65,6.64H6.65A6.66,6.66,0,0,1,0,64.54v-17A6.66,6.66,0,0,1,6.65,41ZM99.29,81.89h16.94a6.67,6.67,0,0,1,6.65,6.65v16.95a6.66,6.66,0,0,1-6.65,6.64H99.29a6.66,6.66,0,0,1-6.65-6.64V88.54a6.67,6.67,0,0,1,6.65-6.65ZM53,81.89H69.91a6.67,6.67,0,0,1,6.65,6.65v16.95a6.66,6.66,0,0,1-6.65,6.64H53a6.66,6.66,0,0,1-6.65-6.64V88.54A6.67,6.67,0,0,1,53,81.89Z"/></svg>