<svg xmlns="http://www.w3.org/2000/svg" shape-rendering="geometricPrecision" text-rendering="geometricPrecision" image-rendering="optimizeQuality" fill-rule="evenodd" clip-rule="evenodd" viewBox="0 0 497 512.39"><path fill-rule="nonzero" d="M270.66 309.66v-90.47c0-56.87-5.98-83.16-19.51-91.78-18.16-11.57-61.37-11.99-123.96-11.99H0V0h127.19c82.06 0 139.5 1.02 185.71 30.48 50.87 32.43 73.17 86.92 73.17 188.71v91.43c25.4-2.43 53.55-6.59 87.67-12.73 3.99-.72 7.83-.2 11.08 1.11l.52.22a19.76 19.76 0 0 1 8.77 7.83c2 3.37 3.04 7.36 2.87 11.38l-.02.3c-.23 3.61-1.46 7.26-3.94 10.58l-145.5 175.9c-1.66 2-3.72 3.66-5.97 4.85l-.42.23c-2.36 1.19-5.06 1.9-7.96 2.08-3.37.15-6.32-.47-8.92-1.66-2.25-1.02-4.16-2.45-5.99-4.16L164.68 330.4c-2.73-3.18-4.29-6.72-4.74-10.31l-.07-.47c-.45-3.82.35-7.71 2.01-11.05l.3-.62c1.85-3.45 4.93-6.45 8.64-8.35 3.4-1.71 7.34-2.51 11.48-1.94l.29.03c34.3 5.25 62.57 9.31 88.07 11.97z"/></svg>