<?xml version="1.0" encoding="UTF-8" standalone="no"?>
<!-- Created with Inkscape (http://www.inkscape.org/) -->

<svg
   width="44.097221mm"
   height="44.097218mm"
   viewBox="0 0 44.097221 44.097218"
   version="1.1"
   id="svg832"
   inkscape:version="1.1 (c4e8f9ed74, 2021-05-24)"
   sodipodi:docname="isolines.svg"
   xmlns:inkscape="http://www.inkscape.org/namespaces/inkscape"
   xmlns:sodipodi="http://sodipodi.sourceforge.net/DTD/sodipodi-0.dtd"
   xmlns="http://www.w3.org/2000/svg"
   xmlns:svg="http://www.w3.org/2000/svg">
  <sodipodi:namedview
     id="namedview834"
     pagecolor="#505050"
     bordercolor="#eeeeee"
     borderopacity="1"
     inkscape:pageshadow="0"
     inkscape:pageopacity="0"
     inkscape:pagecheckerboard="0"
     inkscape:document-units="mm"
     showgrid="true"
     inkscape:snap-grids="true"
     fit-margin-top="0"
     fit-margin-left="0"
     fit-margin-right="0"
     fit-margin-bottom="0"
     inkscape:zoom="4.359103"
     inkscape:cx="38.425337"
     inkscape:cy="74.786028"
     inkscape:window-width="2560"
     inkscape:window-height="1423"
     inkscape:window-x="1920"
     inkscape:window-y="0"
     inkscape:window-maximized="1"
     inkscape:current-layer="layer1">
    <inkscape:grid
       type="xygrid"
       id="grid1065"
       originx="-32.190975"
       originy="-11.024305" />
  </sodipodi:namedview>
  <defs
     id="defs829" />
  <g
     inkscape:label="Layer 1"
     inkscape:groupmode="layer"
     id="layer1"
     transform="translate(-32.190974,-11.024306)">
    <path
       id="rect917"
       style="color:#000000;fill:#f8f8f8;stroke-width:3.77953;stroke-linecap:round;stroke-linejoin:round;-inkscape-stroke:none"
       d="M 3.3300781 -0.00390625 A 3.3336688 3.3336688 0 0 0 0.001953125 3.3339844 L 0.001953125 43.335938 L 0.001953125 163.33594 A 3.3336688 3.3336688 0 0 0 3.3300781 166.66406 L 163.33398 166.66406 A 3.3336688 3.3336688 0 0 0 166.66992 163.33594 L 166.66992 3.3339844 A 3.3336688 3.3336688 0 0 0 163.33398 -0.00390625 L 3.3300781 -0.00390625 z M 6.6679688 6.6699219 L 10.246094 6.6699219 C 11.407858 14.565099 16.496301 22.466532 22.708984 30.298828 C 29.796899 39.234519 38.61432 48.032277 45.931641 55.640625 C 52.432696 62.400242 55.440264 73.038112 57.505859 84.164062 C 59.571454 95.290013 60.606703 106.67224 64.644531 115.16211 C 71.271241 129.09531 79.92393 150.9423 83.458984 160 L 55.103516 160 C 53.17996 157.10488 48.486274 149.78974 44.078125 140.88086 C 38.395817 129.39691 33.777453 115.41557 35.833984 107.18945 C 38.603857 96.109972 36.051615 83.55469 31.669922 72.958984 C 27.288172 62.36326 21.487031 53.67906 14.824219 50.347656 C 10.221748 48.046423 8.2242318 45.919357 7.3535156 44.613281 C 6.9181556 43.960243 6.7613626 43.501697 6.6972656 43.277344 C 6.6823224 43.225043 6.6738712 43.2044 6.6679688 43.197266 L 6.6679688 6.6699219 z M 17.076172 6.6699219 L 31.271484 6.6699219 L 40.410156 24.939453 L 40.476562 25.050781 C 40.476562 25.050781 44.313132 31.456356 49.482422 37.917969 C 52.067067 41.148773 54.981858 44.413269 58.074219 46.990234 C 61.166575 49.567203 64.447053 51.669922 68.335938 51.669922 C 71.669269 51.669922 74.620122 50.222962 76.611328 48.126953 C 78.602538 46.030948 79.813852 43.451473 80.826172 40.751953 C 82.850812 35.352913 84.116505 29.225978 86.318359 24.822266 C 89.873733 17.711523 91.062274 10.665341 91.462891 6.6699219 L 97.664062 6.6699219 C 96.272128 10.224673 95 15.597691 95 23.330078 C 95 30.4597 93.762281 45.561332 92.511719 61.193359 C 91.261156 76.825387 90.001953 93.05817 90.001953 103.33594 C 90.001953 123.89147 95.467684 135.03942 105.5625 150.18164 L 112.10547 160 L 90.619141 160 C 88.541595 154.61464 78.488585 128.74036 70.667969 112.29688 C 67.492803 105.62083 66.192513 94.420207 64.0625 82.947266 C 61.932487 71.474325 58.888326 59.49372 50.738281 51.019531 C 43.350892 43.338329 34.663624 34.64229 27.927734 26.150391 C 22.364684 19.137086 18.318795 12.238883 17.076172 6.6699219 z M 38.728516 6.6699219 L 84.75 6.6699219 C 84.342282 10.194322 83.256715 16.033435 80.353516 21.839844 C 77.555376 27.436126 76.313249 33.811158 74.587891 38.412109 C 73.725213 40.712583 72.752931 42.506165 71.775391 43.535156 C 70.79785 44.564144 70.002603 44.996098 68.335938 44.996094 C 67.224832 44.996094 64.874432 43.977717 62.341797 41.867188 C 59.809162 39.756662 57.102852 36.773095 54.6875 33.753906 C 49.886181 27.752258 46.286397 21.764865 46.242188 21.691406 L 38.728516 6.6699219 z M 104.99609 6.6699219 L 122.90234 6.6699219 C 118.88989 15.544446 112.36463 34.886187 120.23828 54.570312 C 125.05922 66.622667 126.12163 76.806344 127.16211 86.681641 C 128.20259 96.556941 129.21214 106.2114 134.25586 116.29883 C 141.73587 131.25885 144.09591 151.9303 144.76172 160 L 120.12109 160 L 111.10742 146.48242 C 101.20225 131.62467 96.667969 122.78036 96.667969 103.33594 C 96.667969 93.613726 97.904864 77.342551 99.154297 61.724609 C 100.40373 46.106668 101.66406 31.200438 101.66406 23.330078 C 101.66406 16.200457 102.8524 11.64147 103.93164 8.9433594 C 104.35502 7.8849228 104.71299 7.1650558 104.99609 6.6699219 z M 130.32617 6.6699219 L 139.03125 6.6699219 C 137.80572 12.497754 136.48823 23.343588 140.16992 34.388672 L 159.99609 93.855469 L 159.99609 160 L 151.47852 160 C 150.90714 151.94701 148.64095 130.15691 140.2207 113.31641 C 135.77759 104.43019 134.83079 95.849027 133.79102 85.980469 C 132.75124 76.111914 131.61069 65.045278 126.43164 52.097656 C 118.55516 32.406444 127.43655 12.335007 130.32617 6.6699219 z M 145.88672 6.6699219 L 159.99609 6.6699219 L 159.99609 72.785156 L 146.49609 32.277344 C 143.02216 21.85554 144.81715 11.207794 145.88672 6.6699219 z M 6.6679688 53.193359 C 8.0848102 54.236093 9.7884939 55.285849 11.841797 56.3125 C 15.17898 57.981093 21.511182 65.827143 25.513672 75.505859 C 29.516165 85.184576 31.597317 96.651764 29.367188 105.57227 C 26.423722 117.34613 32.173942 131.84045 38.107422 143.83203 C 41.350318 150.38593 44.740552 156.10156 47.183594 160 L 6.6679688 160 L 6.6679688 53.193359 z "
       transform="matrix(0.26458333,0,0,0.26458333,32.190974,11.024306)" />
  </g>
</svg>
