<svg xmlns="http://www.w3.org/2000/svg" shape-rendering="geometricPrecision" text-rendering="geometricPrecision" image-rendering="optimizeQuality" fill-rule="evenodd" clip-rule="evenodd" viewBox="0 0 512 512"><path fill="white" d="M256 0c70.67 0 134.68 28.66 181.01 74.98C483.33 121.31 512 185.32 512 256c0 70.61-28.68 134.62-75.02 180.98C390.68 483.33 326.67 512 256 512c-70.68 0-134.69-28.67-181.02-74.99C28.66 390.68 0 326.67 0 256c0-70.68 28.66-134.69 74.98-181.02C121.31 28.66 185.32 0 256 0zm36.7 187.01c-5.4-2.44-11.24-4.33-17.35-5.63l-.54-.13c-5.86-1.18-12.11-1.81-18.62-1.81-25.11 0-47.85 10.18-64.29 26.59-16.41 16.47-26.58 39.2-26.58 64.3 0 25.14 10.15 47.88 26.54 64.26 16.52 16.44 39.25 26.62 64.33 26.62 23.74 0 45.32-9.03 61.46-23.83a90.734 90.734 0 0 0 29.1-59.15c.84-9.71 9.4-16.9 19.11-16.07 9.71.84 16.9 9.4 16.07 19.11-2.79 32.34-17.88 61.29-40.55 82.06-22.48 20.61-52.41 33.19-85.19 33.19-34.84 0-66.39-14.13-89.22-36.96C144.15 336.67 130 305.1 130 270.33c0-34.84 14.14-66.41 36.97-89.24 22.9-22.82 54.43-36.96 89.22-36.96 8.69 0 17.34.91 25.8 2.64l.66.13c8.01 1.7 15.83 4.21 23.31 7.49l-6.06-15.01c-3.61-9.02.77-19.29 9.79-22.9 9.02-3.61 19.29.77 22.9 9.79l22.09 54.75c3.61 9.02-.76 19.29-9.79 22.9l-57.44 23.18c-9.02 3.61-19.29-.77-22.9-9.79-3.61-9.02.77-19.29 9.79-22.9l18.36-7.4z"/></svg>