<?xml version="1.0" encoding="utf-8"?><svg version="1.1" id="Layer_1" xmlns="http://www.w3.org/2000/svg" xmlns:xlink="http://www.w3.org/1999/xlink" x="0px" y="0px" viewBox="0 0 100.56 122.88" style="enable-background:new 0 0 100.56 122.88" xml:space="preserve"><style type="text/css">.st0{fill-rule:evenodd;clip-rule:evenodd;}</style><g><path class="st0" d="M39.86,49.72h34.16c0.21,0,0.4-0.09,0.54-0.23l0.07-0.06c0.1-0.13,0.16-0.3,0.16-0.48V18.52L59.69,5.68H39.86 c-0.2,0-0.39,0.09-0.54,0.23c-0.14,0.14-0.23,0.34-0.23,0.54v42.5c0,0.21,0.08,0.4,0.22,0.54l0.01,0.01l0.01-0.01 C39.46,49.63,39.65,49.72,39.86,49.72L39.86,49.72z M89.72,115.34L89.72,115.34h-4.99c-0.33,0-0.6-0.26-0.6-0.59V79.13v-0.08 c0-0.74-0.14-1.35-0.4-1.82c-0.05-0.09-0.11-0.18-0.16-0.25c-0.05-0.07-0.13-0.15-0.19-0.22l-0.02-0.02 c-0.25-0.25-0.56-0.43-0.92-0.57l-0.2-0.06l-0.03-0.01h-0.01c-0.34-0.09-0.72-0.14-1.13-0.14h-0.04h-0.07H30.11 c-0.73,0-1.33,0.14-1.79,0.4l-0.02,0.01l-0.22,0.14l-0.03,0.03c-0.07,0.06-0.15,0.12-0.22,0.19l-0.02,0.02l-0.01,0.01 c-0.51,0.52-0.75,1.29-0.75,2.31v0.03v35.67l0,0c0,0.33-0.27,0.59-0.6,0.59h-8.07l0,0c-0.16,0-0.31-0.07-0.42-0.17l-9.88-9.91 c-0.15-0.11-0.24-0.3-0.24-0.48V32.78v-0.07c0-0.68,0.12-1.25,0.36-1.7l0,0c0.04-0.09,0.09-0.16,0.14-0.24l0.02-0.02 c0.06-0.09,0.16-0.15,0.2-0.24l0.01-0.02l0.02-0.02l0,0c0.2-0.2,0.47-0.37,0.75-0.48l0.03-0.02l0.02-0.01l0.02-0.01l0.15-0.05l0,0 l0.01-0.01c0.34-0.11,0.74-0.16,1.18-0.17l0.07-0.01h22.59v19.21c0,1.76,0.73,3.37,1.9,4.55l-0.01,0.01 c1.17,1.17,2.78,1.89,4.55,1.89h34.16c1.78,0,3.39-0.72,4.56-1.89c0.07-0.07,0.13-0.14,0.19-0.21c1.06-1.15,1.71-2.68,1.71-4.35 V29.73h9.19c0.48,0,0.89,0.06,1.26,0.17c0.39,0.12,0.73,0.32,0.98,0.57c0.56,0.55,0.72,1.37,0.74,2.12l0.01,0.07v0.04v0.02v79.63 c0,0.46-0.06,0.88-0.17,1.24l-0.01,0.02l0,0v0.02l-0.07,0.18l0,0l-0.02,0.05l-0.07,0.16l-0.01,0.03l-0.02,0.03l0,0l-0.02,0.05 l-0.12,0.18l0,0l-0.04,0.07l-0.11,0.14l-0.05,0.06c-0.12,0.13-0.27,0.25-0.43,0.34c-0.14,0.08-0.29,0.16-0.45,0.21L91,115.16 c-0.13,0.04-0.28,0.08-0.43,0.12h-0.02h-0.01h-0.02l-0.07,0.01h-0.02l0,0h-0.02c-0.18,0.02-0.4,0.04-0.62,0.05L89.72,115.34 L89.72,115.34L89.72,115.34z M33.41,22.2H7.93l0,0l0,0C3.94,22.2,0,24.89,0,29.38v79.59l0.86,0.57L14,122.68l0.2,0.2h79.15 c4.01,0,7.2-3.22,7.2-7.28V29.4c0-4.04-3.18-7.2-7.2-7.2H80.47v-4.97c0-0.97-0.49-1.83-1.23-2.34L62.55,0.69 c-0.53-0.45-1.18-0.67-1.83-0.67V0H39.86c-1.77,0-3.38,0.73-4.55,1.9c-1.17,1.17-1.9,2.78-1.9,4.55V22.2L33.41,22.2z M44.19,107.76 c-1.36,0-2.46-1.1-2.46-2.46c0-1.36,1.1-2.46,2.46-2.46h25.5c1.36,0,2.46,1.1,2.46,2.46c0,1.36-1.1,2.46-2.46,2.46H44.19 L44.19,107.76L44.19,107.76z M44.19,95.15c-1.36,0-2.46-1.1-2.46-2.46c0-1.36,1.1-2.46,2.46-2.46h25.5c1.36,0,2.46,1.1,2.46,2.46 c0,1.36-1.1,2.46-2.46,2.46H44.19L44.19,95.15L44.19,95.15z M34.34,82.2h43.48l0,0c0.29,0,0.53,0.24,0.53,0.52v32.09 c0,0.29-0.24,0.53-0.53,0.53H34.34l0,0c-0.29,0-0.53-0.24-0.53-0.52V82.73C33.81,82.44,34.05,82.2,34.34,82.2L34.34,82.2 L34.34,82.2L34.34,82.2z"/></g></svg>