<svg xmlns="http://www.w3.org/2000/svg" shape-rendering="geometricPrecision" text-rendering="geometricPrecision" image-rendering="optimizeQuality" fill-rule="evenodd" clip-rule="evenodd" viewBox="0 0 512 512"><g fill-rule="nonzero"><path d="M255.998 0c70.69 0 134.694 28.658 181.017 74.982C483.342 121.308 512 185.312 512 256.002c0 70.689-28.658 134.69-74.985 181.016C390.692 483.342 326.688 512 255.998 512c-70.689 0-134.687-28.658-181.017-74.982C28.657 390.689 0 326.691 0 256.002c0-70.69 28.657-134.694 74.981-181.017C121.308 28.658 185.309 0 255.998 0z"/><path fill="#fff" d="M316.455 162.24h62.71l-29.406 187.523H271.45l-13.8-69.008h-3.601l-13.503 69.008h-78.309L132.834 162.24h62.707l14.104 104.712h1.799l21.603-104.712h45.906l21.302 104.712h1.799z"/></g></svg>