<?xml version="1.0" encoding="UTF-8" standalone="no"?>
<svg
   id="Layer_1"
   data-name="Layer 1"
   viewBox="0 0 114.31 122.88"
   version="1.1"
   sodipodi:docname="export-file.svg"
   inkscape:version="1.1.1 (3bf5ae0d25, 2021-09-20)"
   xmlns:inkscape="http://www.inkscape.org/namespaces/inkscape"
   xmlns:sodipodi="http://sodipodi.sourceforge.net/DTD/sodipodi-0.dtd"
   xmlns="http://www.w3.org/2000/svg"
   xmlns:svg="http://www.w3.org/2000/svg">
  <sodipodi:namedview
     id="namedview11"
     pagecolor="#ffffff"
     bordercolor="#666666"
     borderopacity="1.0"
     inkscape:pageshadow="2"
     inkscape:pageopacity="0.0"
     inkscape:pagecheckerboard="0"
     showgrid="false"
     inkscape:zoom="3.2453899"
     inkscape:cx="131.41718"
     inkscape:cy="63.782782"
     inkscape:window-width="1920"
     inkscape:window-height="1061"
     inkscape:window-x="0"
     inkscape:window-y="0"
     inkscape:window-maximized="1"
     inkscape:current-layer="Layer_1" />
  <defs
     id="defs4">
    <style
       id="style2">.cls-1{fill-rule:evenodd;}</style>
  </defs>
  <title
     id="title6">upload-file</title>
  <path
     class="cls-1"
     d="M69.88,71.65h35.78a8.68,8.68,0,0,1,8.65,8.66v33.92a8.67,8.67,0,0,1-8.65,8.65H69.88a8.67,8.67,0,0,1-8.65-8.65V80.31a8.68,8.68,0,0,1,8.65-8.66ZM26.26,78.12a3.35,3.35,0,0,1-3.17-3.46,3.29,3.29,0,0,1,3.17-3.45H42.9a3.34,3.34,0,0,1,3.17,3.45,3.29,3.29,0,0,1-3.17,3.46Zm75.19-18.46h-7V8.1a1.17,1.17,0,0,0-.33-.82A1.2,1.2,0,0,0,93.34,7H8.06a1.15,1.15,0,0,0-.82.33,1.13,1.13,0,0,0-.33.82v96.35a1.13,1.13,0,0,0,1.15,1.16H45.17v7H8.1A8.16,8.16,0,0,1,0,104.45V8.1A7.93,7.93,0,0,1,2.39,2.39,8,8,0,0,1,8.1,0H93.39A7.92,7.92,0,0,1,99.1,2.39a8,8,0,0,1,2.39,5.71c0,39.79,0-9.25,0,51.56ZM26.22,33.12a3.36,3.36,0,0,1-3.17-3.46,3.3,3.3,0,0,1,3.17-3.46H75.14a3.35,3.35,0,0,1,3.17,3.46,3.3,3.3,0,0,1-3.17,3.46Zm0,22.5a3.36,3.36,0,0,1-3.17-3.46,3.29,3.29,0,0,1,3.17-3.45H75.14a3.34,3.34,0,0,1,3.17,3.45,3.29,3.29,0,0,1-3.17,3.46ZM75.65,99.16a2.41,2.41,0,0,1-2.08-1c-1.1-1.64.4-3.26,1.43-4.41,3-3.23,9.61-9.08,11.07-10.79a2.4,2.4,0,0,1,3.76,0c1.51,1.76,8.53,8,11.33,11.1,1,1.1,2.18,2.59,1.16,4.1a2.42,2.42,0,0,1-2.08,1H95v9.4a3,3,0,0,1-2.95,3H83.82a3,3,0,0,1-2.95-3v-9.4Z"
     id="path8" />
</svg>
