<?xml version="1.0" encoding="UTF-8" standalone="no"?>
<!-- Created with Inkscape (http://www.inkscape.org/) -->

<svg
   width="599.51337"
   height="110.51338"
   viewBox="0 0 158.62123 29.239999"
   version="1.1"
   id="svg5"
   sodipodi:docname="header.svg"
   inkscape:version="1.1.1 (3bf5ae0d25, 2021-09-20)"
   xmlns:inkscape="http://www.inkscape.org/namespaces/inkscape"
   xmlns:sodipodi="http://sodipodi.sourceforge.net/DTD/sodipodi-0.dtd"
   xmlns="http://www.w3.org/2000/svg"
   xmlns:svg="http://www.w3.org/2000/svg">
  <sodipodi:namedview
     id="namedview7"
     pagecolor="#505050"
     bordercolor="#eeeeee"
     borderopacity="1"
     inkscape:pageshadow="0"
     inkscape:pageopacity="0"
     inkscape:pagecheckerboard="0"
     inkscape:document-units="mm"
     showgrid="true"
     inkscape:snap-grids="true"
     units="px"
     inkscape:zoom="2.6107745"
     inkscape:cx="484.72206"
     inkscape:cy="68.179001"
     inkscape:window-width="1920"
     inkscape:window-height="1061"
     inkscape:window-x="0"
     inkscape:window-y="0"
     inkscape:window-maximized="1"
     inkscape:current-layer="layer2"
     fit-margin-top="0"
     fit-margin-left="0"
     fit-margin-right="0"
     fit-margin-bottom="0">
    <inkscape:grid
       type="xygrid"
       id="grid1054"
       originx="1.3908332"
       originy="1.3908333" />
  </sodipodi:namedview>
  <defs
     id="defs2" />
  <g
     inkscape:groupmode="layer"
     id="layer2"
     inkscape:label="Layer 2"
     transform="translate(0.86166667,0.86166667)">
    <path
       id="path19161"
       style="color:#000000;fill:#000000;fill-rule:evenodd;stroke-width:3.77953;stroke-linejoin:round;-inkscape-stroke:none"
       d="m 102.11133,0.21484375 v 0.001953 c -0.007,0.001268 -0.013,0.00257 -0.0195,0.003906 H 2.109375 C 1.0658205,0.2203321 0.21945721,1.0658206 0.21875,2.109375 v 99.996095 c 7.0824e-4,1.04355 0.8470712,1.88904 1.890625,1.88867 H 102.11133 c 1.04355,3.7e-4 1.88991,-0.84512 1.89062,-1.88867 V 2.109375 c -8.9e-4,-0.093551 -0.009,-0.1869062 -0.0234,-0.2792969 -0.001,-0.00912 -0.003,-0.018239 -0.004,-0.027344 -0.0227,-0.1412892 -0.0613,-0.2795449 -0.11523,-0.4121094 -6.5e-4,-0.0013 -9.6e-4,-0.0026 -0.002,-0.00391 l -0.002,-0.00195 c -0.19134,-0.46195415 -0.55794,-0.82926056 -1.01953,-1.02148435 -0.0291,-0.007207 -0.0584,-0.0137197 -0.0879,-0.0195313 -0.1891,-0.0702941 -0.38824,-0.10985734 -0.58985,-0.1171875 -0.0156,-0.004106 -0.0312,-0.008012 -0.0469,-0.0117188 z M 4,4 H 50.107422 V 50.107422 H 4 Z M 53.888672,4 H 97.548828 L 53.888672,47.658203 Z m 46.333988,2.671875 c -0.0903,14.002246 -0.0943,27.654027 -0.0781,41.257813 L 89.792969,58.273438 76.402344,44.888672 61.646484,59.646484 54.457031,52.457031 c 2.685773,-2.693373 5.362505,-5.386344 8.056641,-8.080078 z M 76.402344,48.898438 89.792969,62.28125 100.14648,51.927734 c 0.0246,15.999734 0.0762,31.952208 0.0762,48.287106 H 53.888672 V 55.890625 l 7.757812,7.763672 z M 4,53.888672 H 47.658203 L 11.587891,89.957031 4,97.542969 Z m 46.107422,2.93164 V 100.21484 H 6.671875 l 5.080078,-5.080074 C 24.69194,82.350082 37.389306,69.585109 50.107422,56.820312 Z"
       transform="scale(0.26458333)" />
    <path
       style="fill:#ff7f2a;fill-opacity:1;stroke:none;stroke-width:0.354331;stroke-linecap:round;stroke-linejoin:round;stroke-miterlimit:4;stroke-dasharray:none;stroke-opacity:1"
       d="M 28.4375,78.5625 C 40.296725,66.703125 50.013852,57 50.031114,57 c 0.01726,0 0.03139,9.703125 0.03139,21.5625 V 100.125 H 28.468886 6.8752717 Z"
       id="path44799"
       transform="scale(0.26458333)" />
    <path
       style="fill:#999999;fill-opacity:1;stroke:none;stroke-width:0.354331;stroke-linecap:round;stroke-linejoin:round;stroke-miterlimit:4;stroke-dasharray:none;stroke-opacity:1"
       d="M 53.9375,78.094519 V 56.064037 l 3.782006,3.780481 c 2.080103,2.079266 3.837739,3.780482 3.905856,3.780482 0.06812,0 3.428706,-3.3045 7.467974,-7.343333 l 7.344123,-7.343332 6.687453,6.686578 6.687454,6.686577 5.104392,-5.103253 5.104392,-5.103253 0.0832,11.093183 c 0.0457,6.101252 0.0832,16.905754 0.0832,24.010008 V 100.125 h -23.125 -23.125 z"
       id="path44986"
       transform="scale(0.26458333)" />
    <path
       style="fill:#ddff55;fill-opacity:1;stroke:none;stroke-width:0.354331;stroke-linecap:round;stroke-linejoin:round;stroke-miterlimit:4;stroke-dasharray:none;stroke-opacity:1"
       d="M 4.0625,75.656115 V 53.875 H 25.75 c 11.928125,0 21.6875,0.04225 21.6875,0.09389 0,0.05164 -9.759375,9.853138 -21.6875,21.781115 L 4.0625,97.43723 Z"
       id="path45025"
       transform="scale(0.26458333)" />
    <path
       style="fill:#ffffff;fill-opacity:1;stroke:none;stroke-width:0.354331;stroke-linecap:round;stroke-linejoin:round;stroke-miterlimit:4;stroke-dasharray:none;stroke-opacity:1"
       d="M 58.093267,55.968281 54.56318,52.436564 77.361759,29.638241 100.16034,6.8399179 l -0.0618,20.5487911 -0.0618,20.548791 -5.112044,5.124686 -5.112047,5.124686 -6.687645,-6.686768 -6.687645,-6.686769 -7.344123,7.343332 C 65.054068,56.1955 61.720894,59.5 61.686283,59.5 c -0.03461,0 -1.651468,-1.589274 -3.593016,-3.531719 z"
       id="path45101"
       transform="scale(0.26458333)" />
    <path
       style="fill:#aaeeff;fill-opacity:1;stroke:none;stroke-width:0.354331;stroke-linecap:round;stroke-linejoin:round;stroke-miterlimit:4;stroke-dasharray:none;stroke-opacity:1"
       d="M 4.0625,27.0625 V 4 h 23 23 V 27.0625 50.125 h -23 -23 z"
       id="path45177"
       transform="scale(0.26458333)" />
    <path
       style="fill:#aaeeff;fill-opacity:1;stroke:none;stroke-width:0.354331;stroke-linecap:round;stroke-linejoin:round;stroke-miterlimit:4;stroke-dasharray:none;stroke-opacity:1"
       d="M 53.9375,25.75 V 4 H 75.718615 97.49973 L 75.75,25.75 C 63.787648,37.7125 53.986146,47.5 53.968885,47.5 53.951623,47.5 53.9375,37.7125 53.9375,25.75 Z"
       id="path45438"
       transform="scale(0.26458333)" />
    <g
       aria-label="Snowcapped"
       id="text24715"
       style="font-size:19.4583px;line-height:125%;letter-spacing:0px;word-spacing:0px;fill:#ffffff;fill-opacity:1;stroke-width:0.364843px">
      <path
         d="M 41.383848,7.0962679 V 8.9679891 Q 40.291219,8.4454274 39.322104,8.1888971 38.35299,7.9323667 37.450383,7.9323667 q -1.567685,0 -2.422786,0.6080719 -0.8456,0.6080719 -0.8456,1.7292044 0,0.940611 0.560566,1.425168 0.570067,0.475057 2.147254,0.769591 l 1.159137,0.237528 q 2.147254,0.408549 3.163874,1.444171 1.026121,1.026121 1.026121,2.755326 0,2.061743 -1.387164,3.125869 -1.377663,1.064126 -4.047478,1.064126 -1.007119,0 -2.147254,-0.228027 -1.130634,-0.228027 -2.346777,-0.67458 v -1.976233 q 1.168638,0.655577 2.28977,0.988116 1.121133,0.33254 2.204261,0.33254 1.643694,0 2.5368,-0.646077 0.893105,-0.646076 0.893105,-1.843217 0,-1.045124 -0.646076,-1.634194 -0.636575,-0.589069 -2.099748,-0.883604 l -1.168639,-0.228027 q -2.147253,-0.42755 -3.106867,-1.339658 -0.959613,-0.912108 -0.959613,-2.5368 0,-1.8812224 1.320656,-2.9643504 1.330157,-1.083128 3.657932,-1.083128 0.997618,0 2.033241,0.1805213 1.035622,0.1805214 2.11875,0.541564 z"
         id="path53543"
         style="fill:#ffffff;fill-opacity:1" />
      <path
         d="m 54.001339,14.39313 v 6.422759 h -1.748207 v -6.365752 q 0,-1.510679 -0.589069,-2.261267 -0.58907,-0.750589 -1.767209,-0.750589 -1.415667,0 -2.232764,0.902607 -0.817097,0.902606 -0.817097,2.460791 v 6.01421 H 45.089286 V 10.174632 h 1.757707 v 1.653195 q 0.627074,-0.959613 1.472674,-1.434669 0.855101,-0.4750566 1.966733,-0.4750566 1.833717,0 2.774328,1.1401346 0.940611,1.130634 0.940611,3.334894 z"
         id="path53545"
         style="fill:#ffffff;fill-opacity:1" />
      <path
         d="m 61.611739,11.400277 q -1.406166,0 -2.223262,1.10213 -0.817097,1.092629 -0.817097,3.002355 0,1.909725 0.807595,3.011856 0.817097,1.092629 2.232764,1.092629 1.396665,0 2.213762,-1.10213 0.817097,-1.102131 0.817097,-3.002355 0,-1.890724 -0.817097,-2.992854 -0.817097,-1.111631 -2.213762,-1.111631 z m 0,-1.4821756 q 2.28027,0 3.581924,1.4821756 1.301653,1.482175 1.301653,4.104485 0,2.612808 -1.301653,4.104485 -1.301654,1.482175 -3.581924,1.482175 -2.28977,0 -3.591424,-1.482175 -1.292153,-1.491677 -1.292153,-4.104485 0,-2.62231 1.292153,-4.104485 1.301654,-1.4821756 3.591424,-1.4821756 z"
         id="path53547"
         style="fill:#ffffff;fill-opacity:1" />
      <path
         d="m 68.376539,10.174632 h 1.748207 l 2.185258,8.303981 2.175757,-8.303981 h 2.061744 l 2.185258,8.303981 2.175757,-8.303981 h 1.748207 l -2.783829,10.641257 h -2.061744 l -2.289771,-8.72203 -2.299271,8.72203 h -2.061744 z"
         id="path53549"
         style="fill:#ffffff;fill-opacity:1" />
      <path
         d="m 92.965443,10.58318 v 1.634193 q -0.741087,-0.408548 -1.491676,-0.608072 -0.741087,-0.209024 -1.501177,-0.209024 -1.700701,0 -2.641312,1.083128 -0.940612,1.073626 -0.940612,3.021357 0,1.94773 0.940612,3.030858 0.940611,1.073627 2.641312,1.073627 0.76009,0 1.501177,-0.199524 0.750589,-0.209025 1.491676,-0.617573 v 1.615191 q -0.731586,0.34204 -1.520179,0.513061 -0.779092,0.17102 -1.662697,0.17102 -2.403784,0 -3.819451,-1.510679 -1.415667,-1.510678 -1.415667,-4.075981 0,-2.603308 1.425168,-4.094984 1.43467,-1.4916766 3.923964,-1.4916766 0.807595,0 1.577186,0.1710206 0.769591,0.161519 1.491676,0.494058 z"
         id="path53551"
         style="fill:#ffffff;fill-opacity:1" />
      <path
         d="m 100.84187,15.466757 q -2.118745,0 -2.935842,0.484557 -0.817097,0.484558 -0.817097,1.653196 0,0.93111 0.608072,1.482175 0.617573,0.541564 1.672198,0.541564 1.453669,0 2.327779,-1.026121 0.8836,-1.035623 0.8836,-2.745825 v -0.389546 z m 3.48692,-0.722085 v 6.071217 h -1.74821 v -1.615191 q -0.59857,0.969115 -1.49168,1.43467 -0.8931,0.456054 -2.185254,0.456054 -1.634193,0 -2.603308,-0.912108 -0.959613,-0.921609 -0.959613,-2.460791 0,-1.795712 1.197141,-2.70782 1.206643,-0.912108 3.591424,-0.912108 h 2.45129 v -0.17102 q 0,-1.206642 -0.79809,-1.86222 -0.7886,-0.665078 -2.223267,-0.665078 -0.912107,0 -1.77671,0.218525 -0.864602,0.218526 -1.662696,0.655578 v -1.615191 q 0.959613,-0.370544 1.86222,-0.551065 0.902607,-0.1900226 1.757708,-0.1900226 2.308775,0 3.448905,1.1971416 1.14014,1.197141 1.14014,3.629429 z"
         id="path53553"
         style="fill:#ffffff;fill-opacity:1" />
      <path
         d="m 109.62092,19.219701 v 5.643667 h -1.75771 V 10.174632 h 1.75771 v 1.615191 q 0.55106,-0.950113 1.38716,-1.406167 0.8456,-0.4655546 2.01424,-0.4655546 1.93823,0 3.14487,1.5391816 1.21614,1.539182 1.21614,4.047479 0,2.508296 -1.21614,4.047478 -1.20664,1.539182 -3.14487,1.539182 -1.16864,0 -2.01424,-0.456054 -0.8361,-0.465555 -1.38716,-1.415667 z m 5.9477,-3.714939 q 0,-1.928728 -0.7981,-3.021357 -0.78859,-1.102131 -2.17575,-1.102131 -1.38717,0 -2.18526,1.102131 -0.78859,1.092629 -0.78859,3.021357 0,1.928728 0.78859,3.030858 0.79809,1.092629 2.18526,1.092629 1.38716,0 2.17575,-1.092629 0.7981,-1.10213 0.7981,-3.030858 z"
         id="path53555"
         style="fill:#ffffff;fill-opacity:1" />
      <path
         d="m 121.97237,19.219701 v 5.643667 h -1.75771 V 10.174632 h 1.75771 v 1.615191 q 0.55107,-0.950113 1.38716,-1.406167 0.8456,-0.4655546 2.01424,-0.4655546 1.93823,0 3.14487,1.5391816 1.21615,1.539182 1.21615,4.047479 0,2.508296 -1.21615,4.047478 -1.20664,1.539182 -3.14487,1.539182 -1.16864,0 -2.01424,-0.456054 -0.83609,-0.465555 -1.38716,-1.415667 z m 5.9477,-3.714939 q 0,-1.928728 -0.79809,-3.021357 -0.78859,-1.102131 -2.17576,-1.102131 -1.38716,0 -2.18526,1.102131 -0.78859,1.092629 -0.78859,3.021357 0,1.928728 0.78859,3.030858 0.7981,1.092629 2.18526,1.092629 1.38717,0 2.17576,-1.092629 0.79809,-1.10213 0.79809,-3.030858 z"
         id="path53557"
         style="fill:#ffffff;fill-opacity:1" />
      <path
         d="m 141.73471,15.058209 v 0.855101 h -8.03795 q 0.11401,1.805213 1.08313,2.755326 0.97861,0.940611 2.71732,0.940611 1.00712,0 1.94773,-0.247029 0.95011,-0.24703 1.88122,-0.741088 v 1.653195 q -0.94061,0.399048 -1.92873,0.608072 -0.98811,0.209025 -2.00473,0.209025 -2.5463,0 -4.03798,-1.482175 -1.48218,-1.482175 -1.48218,-4.009474 0,-2.612809 1.40617,-4.14249 1.41567,-1.5391816 3.80995,-1.5391816 2.14725,0 3.3919,1.3871636 1.25415,1.377663 1.25415,3.752944 z m -1.74821,-0.513061 q -0.019,-1.434669 -0.80759,-2.28977 -0.77909,-0.855101 -2.07125,-0.855101 -1.46317,0 -2.34677,0.826597 -0.87411,0.826598 -1.00712,2.327775 z"
         id="path53559"
         style="fill:#ffffff;fill-opacity:1" />
      <path
         d="M 151.60637,11.789823 V 6.0321422 h 1.74821 V 20.815889 h -1.74821 v -1.596188 q -0.55106,0.950112 -1.39666,1.415667 -0.8361,0.456054 -2.01424,0.456054 -1.92873,0 -3.14487,-1.539182 -1.20664,-1.539182 -1.20664,-4.047478 0,-2.508297 1.20664,-4.047479 1.21614,-1.5391816 3.14487,-1.5391816 1.17814,0 2.01424,0.4655546 0.8456,0.456054 1.39666,1.406167 z m -5.9572,3.714939 q 0,1.928728 0.78859,3.030858 0.7981,1.092629 2.18526,1.092629 1.38717,0 2.18526,-1.092629 0.79809,-1.10213 0.79809,-3.030858 0,-1.928728 -0.79809,-3.021357 -0.79809,-1.102131 -2.18526,-1.102131 -1.38716,0 -2.18526,1.102131 -0.78859,1.092629 -0.78859,3.021357 z"
         id="path53561"
         style="fill:#ffffff;fill-opacity:1" />
    </g>
  </g>
</svg>
