<?xml version="1.0" encoding="UTF-8" standalone="no"?>
<!-- Created with Inkscape (http://www.inkscape.org/) -->

<svg
   width="17.665001mm"
   height="17.665001mm"
   viewBox="0 0 17.665001 17.665001"
   version="1.1"
   id="svg5"
   inkscape:version="1.1 (c4e8f9ed74, 2021-05-24)"
   sodipodi:docname="spline.svg"
   xmlns:inkscape="http://www.inkscape.org/namespaces/inkscape"
   xmlns:sodipodi="http://sodipodi.sourceforge.net/DTD/sodipodi-0.dtd"
   xmlns="http://www.w3.org/2000/svg"
   xmlns:svg="http://www.w3.org/2000/svg">
  <sodipodi:namedview
     id="namedview7"
     pagecolor="#505050"
     bordercolor="#eeeeee"
     borderopacity="1"
     inkscape:pageshadow="0"
     inkscape:pageopacity="0"
     inkscape:pagecheckerboard="0"
     inkscape:document-units="mm"
     showgrid="true"
     inkscape:zoom="12.329405"
     inkscape:cx="55.761003"
     inkscape:cy="35.524828"
     inkscape:window-width="2560"
     inkscape:window-height="1423"
     inkscape:window-x="1920"
     inkscape:window-y="0"
     inkscape:window-maximized="1"
     fit-margin-top="0"
     fit-margin-left="0"
     fit-margin-right="0"
     fit-margin-bottom="0">
    <inkscape:grid
       type="xygrid"
       id="grid2989"
       originx="-38.032082"
       originy="-102.855" />
  </sodipodi:namedview>
  <defs
     id="defs2">
    <marker
       style="overflow:visible"
       id="SquareS"
       refX="0.0"
       refY="0.0"
       orient="auto"
       inkscape:stockid="SquareS"
       inkscape:isstock="true">
      <path
         transform="scale(0.2)"
         style="fill-rule:evenodd;fill:context-stroke;stroke:context-stroke;stroke-width:1.0pt"
         d="M -5.0,-5.0 L -5.0,5.0 L 5.0,5.0 L 5.0,-5.0 L -5.0,-5.0 z "
         id="path4154" />
    </marker>
    <marker
       style="overflow:visible"
       id="DotS"
       refX="0.0"
       refY="0.0"
       orient="auto"
       inkscape:stockid="DotS"
       inkscape:isstock="true">
      <path
         transform="scale(0.2) translate(7.4, 1)"
         style="fill-rule:evenodd;fill:context-stroke;stroke:context-stroke;stroke-width:1.0pt"
         d="M -2.5,-1.0 C -2.5,1.7600000 -4.7400000,4.0 -7.5,4.0 C -10.260000,4.0 -12.5,1.7600000 -12.5,-1.0 C -12.5,-3.7600000 -10.260000,-6.0 -7.5,-6.0 C -4.7400000,-6.0 -2.5,-3.7600000 -2.5,-1.0 z "
         id="path4145" />
    </marker>
    <marker
       style="overflow:visible"
       id="marker4426"
       refX="0"
       refY="0"
       orient="auto"
       inkscape:stockid="SquareM"
       inkscape:isstock="true">
      <path
         transform="scale(0.4)"
         style="fill:context-stroke;fill-rule:evenodd;stroke:context-stroke;stroke-width:1pt"
         d="M -5,-5 V 5 H 5 V -5 Z"
         id="path4424" />
    </marker>
    <marker
       style="overflow:visible"
       id="marker4416"
       refX="0"
       refY="0"
       orient="auto"
       inkscape:stockid="SquareM"
       inkscape:isstock="true">
      <path
         transform="scale(0.4)"
         style="fill:context-stroke;fill-rule:evenodd;stroke:context-stroke;stroke-width:1pt"
         d="M -5,-5 V 5 H 5 V -5 Z"
         id="path4414" />
    </marker>
    <marker
       style="overflow:visible"
       id="SquareM"
       refX="0"
       refY="0"
       orient="auto"
       inkscape:stockid="SquareM"
       inkscape:isstock="true">
      <path
         transform="scale(0.4)"
         style="fill:context-stroke;fill-rule:evenodd;stroke:context-stroke;stroke-width:1pt"
         d="M -5,-5 V 5 H 5 V -5 Z"
         id="path4151" />
    </marker>
    <marker
       style="overflow:visible"
       id="marker4398"
       refX="0"
       refY="0"
       orient="auto"
       inkscape:stockid="SquareL"
       inkscape:isstock="true">
      <path
         transform="scale(0.8)"
         style="fill:context-stroke;fill-rule:evenodd;stroke:context-stroke;stroke-width:1pt"
         d="M -5,-5 V 5 H 5 V -5 Z"
         id="path4396" />
    </marker>
    <marker
       style="overflow:visible"
       id="marker4388"
       refX="0"
       refY="0"
       orient="auto"
       inkscape:stockid="DiamondSend"
       inkscape:isstock="true">
      <path
         transform="matrix(0.2,0,0,0.2,-1.2,0)"
         style="fill:context-stroke;fill-rule:evenodd;stroke:context-stroke;stroke-width:1pt"
         d="M 0,-7.0710768 -7.0710894,0 0,7.0710589 7.0710462,0 Z"
         id="path4386" />
    </marker>
    <marker
       style="overflow:visible"
       id="DiamondSend"
       refX="0"
       refY="0"
       orient="auto"
       inkscape:stockid="DiamondSend"
       inkscape:isstock="true">
      <path
         transform="matrix(0.2,0,0,0.2,-1.2,0)"
         style="fill:context-stroke;fill-rule:evenodd;stroke:context-stroke;stroke-width:1pt"
         d="M 0,-7.0710768 -7.0710894,0 0,7.0710589 7.0710462,0 Z"
         id="path4181" />
    </marker>
    <marker
       style="overflow:visible"
       id="EmptyDiamondL"
       refX="0"
       refY="0"
       orient="auto"
       inkscape:stockid="EmptyDiamondL"
       inkscape:isstock="true">
      <path
         transform="scale(0.8)"
         style="fill:context-fill;fill-rule:evenodd;stroke:context-stroke;stroke-width:1pt"
         d="M 0,-7.0710768 -7.0710894,0 0,7.0710589 7.0710462,0 Z"
         id="path4184" />
    </marker>
    <marker
       style="overflow:visible"
       id="EmptyDiamondM"
       refX="0"
       refY="0"
       orient="auto"
       inkscape:stockid="EmptyDiamondM"
       inkscape:isstock="true">
      <path
         transform="scale(0.4)"
         style="fill:context-fill;fill-rule:evenodd;stroke:context-stroke;stroke-width:1pt"
         d="M 0,-7.0710768 -7.0710894,0 0,7.0710589 7.0710462,0 Z"
         id="path4187" />
    </marker>
    <marker
       style="overflow:visible"
       id="SquareL"
       refX="0"
       refY="0"
       orient="auto"
       inkscape:stockid="SquareL"
       inkscape:isstock="true">
      <path
         transform="scale(0.8)"
         style="fill:context-stroke;fill-rule:evenodd;stroke:context-stroke;stroke-width:1pt"
         d="M -5,-5 V 5 H 5 V -5 Z"
         id="path4148" />
    </marker>
    <marker
       style="overflow:visible"
       id="EmptyDiamondMstart"
       refX="0"
       refY="0"
       orient="auto"
       inkscape:stockid="EmptyDiamondMstart"
       inkscape:isstock="true">
      <path
         transform="matrix(0.4,0,0,0.4,2.6,0)"
         style="fill:context-fill;fill-rule:evenodd;stroke:context-stroke;stroke-width:1pt"
         d="M 0,-7.0710768 -7.0710894,0 0,7.0710589 7.0710462,0 Z"
         id="path4196" />
    </marker>
    <marker
       style="overflow:visible"
       id="Arrow1Lstart"
       refX="0"
       refY="0"
       orient="auto"
       inkscape:stockid="Arrow1Lstart"
       inkscape:isstock="true">
      <path
         transform="matrix(0.8,0,0,0.8,10,0)"
         style="fill:context-stroke;fill-rule:evenodd;stroke:context-stroke;stroke-width:1pt"
         d="M 0,0 5,-5 -12.5,0 5,5 Z"
         id="path4078" />
    </marker>
  </defs>
  <g
     inkscape:label="Layer 1"
     inkscape:groupmode="layer"
     id="layer1"
     transform="translate(-38.032082,-102.855)">
    <g
       id="g9198">
      <path
         id="path8630"
         style="color:#000000;fill:#ffffff;fill-rule:evenodd;stroke-width:3.77953;stroke-miterlimit:3.7;-inkscape-stroke:none"
         d="M 50.828125 2.828125 L 50.828125 15.681641 L 51.589844 15.681641 L 53.3125 15.681641 C 52.737566 18.334819 51.962962 21.452591 51.042969 24.464844 C 50.117315 27.495605 49.0258 30.427574 47.923828 32.613281 L 39.017578 32.496094 L 39.009766 33.25 L 38.992188 34.492188 C 37.265684 33.629151 35.644794 32.513179 34.109375 31.330078 C 32.910497 30.406309 31.783056 29.460149 30.683594 28.587891 L 30.683594 21.830078 L 17.832031 21.830078 L 17.832031 22.589844 L 17.832031 28.179688 C 16.922537 29.016832 16.105668 29.985098 15.380859 31.005859 C 13.245593 34.01304 11.632612 37.736701 10.332031 41.443359 C 9.1563529 44.794045 8.2630238 48.122796 7.6269531 50.833984 L 2.8320312 50.833984 L 2.8320312 63.685547 L 3.5839844 63.685547 L 15.683594 63.685547 L 15.683594 50.833984 L 13.458984 50.833984 C 14.031323 48.540183 14.776132 45.904607 15.683594 43.318359 C 16.816154 40.090537 18.221848 36.937857 19.734375 34.681641 L 29.199219 34.681641 C 29.661984 35.053942 30.141211 35.43684 30.646484 35.826172 C 32.913625 37.573092 35.657244 39.451622 38.90625 40.636719 L 38.839844 45.341797 L 51.691406 45.519531 L 51.804688 37.277344 C 52.023997 36.928168 52.237556 36.568142 52.445312 36.195312 C 54.04078 33.332131 55.347466 29.764835 56.460938 26.119141 C 57.574409 22.473408 58.465693 18.766719 59.087891 15.753906 C 59.093359 15.727426 59.098084 15.707947 59.103516 15.681641 L 63.679688 15.681641 L 63.679688 2.828125 L 50.828125 2.828125 z "
         transform="matrix(0.26458333,0,0,0.26458333,38.032082,102.855)" />
      <g
         id="g8588">
        <g
           id="path8620" />
        <g
           id="path8610" />
        <g
           id="path8600" />
        <g
           id="path8590" />
      </g>
    </g>
  </g>
</svg>
