<svg id="Layer_1" data-name="Layer 1" xmlns="http://www.w3.org/2000/svg" viewBox="0 0 122.88 102.4"><defs><style>.cls-1{fill-rule:evenodd;}</style></defs><title>list-view</title><path fill="white" class="cls-1" d="M35.37,0h86a1.56,1.56,0,0,1,1.55,1.55V20.21a1.58,1.58,0,0,1-1.55,1.54h-86a1.56,1.56,0,0,1-1.54-1.54V1.55A1.54,1.54,0,0,1,35.37,0Zm0,80.65h86a1.56,1.56,0,0,1,1.55,1.54v18.67a1.58,1.58,0,0,1-1.55,1.54h-86a1.56,1.56,0,0,1-1.54-1.54V82.19a1.54,1.54,0,0,1,1.54-1.54Zm-33.82,0h16a1.56,1.56,0,0,1,1.55,1.54v18.67a1.58,1.58,0,0,1-1.55,1.54h-16A1.56,1.56,0,0,1,0,100.86V82.19a1.54,1.54,0,0,1,1.55-1.54ZM35.37,62.08h86a1.56,1.56,0,0,0,1.55-1.55V41.87a1.58,1.58,0,0,0-1.55-1.55h-86a1.57,1.57,0,0,0-1.54,1.55V60.53a1.55,1.55,0,0,0,1.54,1.55Zm-33.82,0h16a1.56,1.56,0,0,0,1.55-1.55V41.87a1.58,1.58,0,0,0-1.55-1.55h-16A1.57,1.57,0,0,0,0,41.87V60.53a1.55,1.55,0,0,0,1.55,1.55ZM1.55,0h16A1.56,1.56,0,0,1,19.1,1.55V20.21a1.58,1.58,0,0,1-1.55,1.54h-16A1.56,1.56,0,0,1,0,20.21V1.55A1.54,1.54,0,0,1,1.55,0Z"/></svg>